<svg xmlns="http://www.w3.org/2000/svg" viewBox="0 0 1460 600" role="img" aria-labelledby="title desc">
  <title id="title">MoE 中间 block 时间线</title>
  <desc id="desc">GPU0、NIC0、GPU1、NIC1 上的计算与通信事件。</desc>
  <rect width="1460" height="600" fill="#ffffff"/>
  <style>
    text { font-family: Inter, "Noto Sans CJK SC", "Microsoft YaHei", sans-serif; fill: #18212f; }
    .title { font-size: 24px; font-weight: 700; }
    .subtitle { font-size: 14px; fill: #5f6b7a; }
    .axis { font-size: 12px; fill: #5f6b7a; }
    .label { font-size: 13px; }
    .value { font-size: 13px; font-weight: 700; }
    .small { font-size: 11px; fill: #5f6b7a; }
    .grid { stroke: #d9e0e8; stroke-width: 1; }
  </style>
  <text x="60" y="42" class="title">LLMServingSim 中间 MoE block：GPU 与 NIC 观测点</text><text x="60" y="67" class="subtitle">Transformer block 24；横轴为相对 block 起点的时间（μs），四条 lane 共用同一时间轴。</text><line x1="155.00" y1="110" x2="155.00" y2="462" class="grid"/><text x="155.00" y="485" text-anchor="middle" class="axis">0</text><line x1="348.37" y1="110" x2="348.37" y2="462" class="grid"/><text x="348.37" y="485" text-anchor="middle" class="axis">100</text><line x1="541.75" y1="110" x2="541.75" y2="462" class="grid"/><text x="541.75" y="485" text-anchor="middle" class="axis">200</text><line x1="735.12" y1="110" x2="735.12" y2="462" class="grid"/><text x="735.12" y="485" text-anchor="middle" class="axis">300</text><line x1="928.50" y1="110" x2="928.50" y2="462" class="grid"/><text x="928.50" y="485" text-anchor="middle" class="axis">400</text><line x1="1121.87" y1="110" x2="1121.87" y2="462" class="grid"/><text x="1121.87" y="485" text-anchor="middle" class="axis">500</text><line x1="1315.25" y1="110" x2="1315.25" y2="462" class="grid"/><text x="1315.25" y="485" text-anchor="middle" class="axis">600</text><line x1="1508.62" y1="110" x2="1508.62" y2="462" class="grid"/><text x="1508.62" y="485" text-anchor="middle" class="axis">700</text><text x="130" y="156" text-anchor="end" class="value">GPU0</text><rect x="155" y="132" width="1235" height="38" fill="#f1f5f9"/><text x="130" y="242" text-anchor="end" class="value">NIC0</text><rect x="155" y="218" width="1235" height="38" fill="#f1f5f9"/><text x="130" y="328" text-anchor="end" class="value">GPU1</text><rect x="155" y="304" width="1235" height="38" fill="#f1f5f9"/><text x="130" y="414" text-anchor="end" class="value">NIC1</text><rect x="155" y="390" width="1235" height="38" fill="#f1f5f9"/><rect x="155.00" y="132" width="4.93" height="38" fill="#059669" opacity="0.88"/><rect x="155.00" y="304" width="4.93" height="38" fill="#059669" opacity="0.88"/><rect x="159.93" y="132" width="20.83" height="38" fill="#059669" opacity="0.88"/><rect x="159.93" y="304" width="20.83" height="38" fill="#059669" opacity="0.88"/><rect x="180.76" y="132" width="6.25" height="38" fill="#059669" opacity="0.88"/><rect x="180.76" y="304" width="6.25" height="38" fill="#059669" opacity="0.88"/><rect x="187.01" y="132" width="3.82" height="38" fill="#059669" opacity="0.88"/><rect x="187.01" y="304" width="3.82" height="38" fill="#059669" opacity="0.88"/><rect x="190.83" y="132" width="15.53" height="38" fill="#059669" opacity="0.88"/><rect x="190.83" y="304" width="15.53" height="38" fill="#059669" opacity="0.88"/><rect x="206.36" y="132" width="18.89" height="38" fill="#059669" opacity="0.88"/><rect x="206.36" y="304" width="18.89" height="38" fill="#059669" opacity="0.88"/><rect x="225.25" y="218" width="137.34" height="38" fill="#2563eb" opacity="0.88"/><text x="293.92" y="242" text-anchor="middle" fill="#ffffff" style="font-size:12px;font-weight:700">ALLREDUCE · 71.0 μs</text><rect x="225.25" y="390" width="137.34" height="38" fill="#2563eb" opacity="0.88"/><text x="293.92" y="414" text-anchor="middle" fill="#ffffff" style="font-size:12px;font-weight:700">ALLREDUCE · 71.0 μs</text><rect x="362.59" y="132" width="4.93" height="38" fill="#059669" opacity="0.88"/><rect x="362.59" y="304" width="4.93" height="38" fill="#059669" opacity="0.88"/><rect x="367.52" y="218" width="70.60" height="38" fill="#7c3aed" opacity="0.88"/><text x="402.82" y="211" text-anchor="middle" class="small">AG</text><rect x="367.52" y="390" width="70.60" height="38" fill="#7c3aed" opacity="0.88"/><rect x="438.12" y="132" width="883.21" height="38" fill="#059669" opacity="0.88"/><text x="879.73" y="156" text-anchor="middle" fill="#ffffff" style="font-size:12px;font-weight:700">expert · 456.7 μs</text><rect x="438.12" y="304" width="883.21" height="38" fill="#059669" opacity="0.88"/><text x="879.73" y="328" text-anchor="middle" fill="#ffffff" style="font-size:12px;font-weight:700">expert · 456.7 μs</text><rect x="1321.33" y="218" width="68.67" height="38" fill="#d97706" opacity="0.88"/><text x="1355.67" y="211" text-anchor="middle" class="small">RS</text><rect x="1321.33" y="390" width="68.67" height="38" fill="#d97706" opacity="0.88"/><text x="772.5" y="514" text-anchor="middle" class="axis">relative time from block 24 start (μs)</text><rect x="155" y="536" width="14" height="14" fill="#059669"/><text x="177" y="548" class="small">GPU compute · profile-derived</text><rect x="455" y="536" width="14" height="14" fill="#2563eb"/><text x="477" y="548" class="small">AR · reconstructed</text><rect x="755" y="536" width="14" height="14" fill="#7c3aed"/><text x="777" y="548" class="small">AG · reconstructed</text><rect x="1055" y="536" width="14" height="14" fill="#d97706"/><text x="1077" y="548" class="small">RS · reconstructed</text>
</svg>
